# This file uses centimeters as units for non-parametric coordinates.

mtllib HammerForSubstance.mtl
g default
v 0.800454 9.206100 -0.762630
v 0.810100 9.206220 0.752984
v 0.907467 0.522096 -0.762630
v 0.917112 0.522215 0.752984
v 0.589189 9.912851 0.543481
v 0.582228 9.912764 -0.550444
v 0.541250 13.803062 0.543481
v 0.534289 13.802976 -0.550444
v 0.053147 9.196895 0.882962
v 0.042843 9.906119 0.637295
v -0.005096 13.796329 0.637295
v -0.013207 13.796229 -0.637296
v 0.034732 9.906018 -0.637296
v 0.041908 9.196754 -0.882962
v 0.148921 0.512750 -0.882962
v 0.160159 0.512887 0.882962
v 0.661346 13.804542 -0.004268
v 0.709285 9.914332 -0.004268
v 0.976492 9.208274 -0.005913
v 1.083504 0.524265 -0.005913
v 0.154540 0.512818 -0.000000
v 0.703314 15.703126 -0.745335
v 0.712741 15.703242 0.735907
v 0.721566 14.221966 -0.745335
v 0.730993 14.222082 0.735907
v 0.549152 14.406323 1.822049
v 0.535495 15.514578 1.822049
v 0.525917 14.406035 -1.829104
v 0.512260 15.514291 -1.829104
v 0.552789 14.406367 2.393513
v 0.539132 15.514622 2.393513
v 0.522280 14.405992 -2.400568
v 0.508623 15.514247 -2.400568
v 1.392283 13.590219 2.853391
v 1.358260 16.351207 2.853390
v 1.355854 13.589771 -2.870964
v 1.321831 16.350759 -2.870964
v 1.402249 13.590342 4.419343
v 1.368226 16.351330 4.419342
v 1.345889 13.589648 -4.436917
v 1.311865 16.350636 -4.436917
v 0.975404 14.965787 0.734293
v 0.965977 14.965671 -0.746949
v 0.708794 14.962502 -1.830311
v 0.705157 14.962457 -2.401776
v 1.811454 14.976090 -2.873973
v 1.801489 14.975967 -4.439925
v 1.857849 14.976661 4.416334
v 1.847883 14.976538 2.850382
v 0.735666 14.962833 2.392306
v 0.732029 14.962789 1.820841
v 1.291775 14.969686 2.621344
v 0.948696 15.932916 2.623452
v 0.972536 13.998292 2.623452
v 1.258305 14.969273 -2.637874
v 0.915227 15.932503 -2.635767
v 0.939067 13.997880 -2.635767
v -0.017615 16.770250 4.428129
v -0.027580 16.770127 2.862177
v -0.022361 16.226451 2.629609
v -0.017141 15.682776 2.397040
v -0.020778 15.682731 1.825576
v -0.030706 15.927975 0.740620
v -0.040132 15.927859 -0.740622
v -0.044014 15.682445 -1.825577
v -0.047651 15.682400 -2.397042
v -0.055830 16.226040 -2.629610
v -0.064010 16.769679 -2.862178
v -0.073975 16.769556 -4.428130
v -0.051591 14.953131 -4.428130
v -0.029208 13.136707 -4.428130
v -0.019242 13.136830 -2.862178
v -0.024462 13.680504 -2.629610
v -0.029681 14.224182 -2.397041
v -0.026044 14.224226 -1.825577
v -0.016117 13.978980 -0.740621
v -0.006690 13.979096 0.740620
v -0.002809 14.224512 1.825576
v 0.000828 14.224557 2.397040
v 0.009008 13.680915 2.629609
v 0.017187 13.137279 2.862177
v 0.027153 13.137402 4.428129
v 0.004769 14.953824 4.428129
v -0.037007 16.056768 -0.000001
v 0.822254 15.802534 -0.005449
v 1.125643 14.967636 -0.007314
v 0.842919 14.125519 -0.005449
v -0.715045 9.187425 -0.752984
v -0.705399 9.187545 0.762630
v -0.608032 0.503421 -0.752984
v -0.598387 0.503540 0.762630
v -0.504652 9.899372 0.550443
v -0.511614 9.899285 -0.543482
v -0.552591 13.789583 0.550443
v -0.559553 13.789497 -0.543482
v -0.679649 13.788017 0.004267
v -0.631710 9.897807 0.004267
v -0.881437 9.185378 0.005912
v -0.774425 0.501370 0.005913
v -0.777815 15.684874 -0.735908
v -0.768389 15.684990 0.745334
v -0.759563 14.203714 -0.735908
v -0.750137 14.203830 0.745334
v -0.559082 14.392666 1.829103
v -0.572739 15.500922 1.829103
v -0.582318 14.392379 -1.822050
v -0.595975 15.500634 -1.822050
v -0.555446 14.392710 2.400567
v -0.569103 15.500965 2.400567
v -0.585955 14.392335 -2.393515
v -0.599612 15.500590 -2.393515
v -1.368653 13.556196 2.870964
v -1.402677 16.317184 2.870963
v -1.405082 13.555748 -2.853391
v -1.439106 16.316736 -2.853391
v -1.358688 13.556319 4.436916
v -1.392711 16.317307 4.436915
v -1.415048 13.555625 -4.419344
v -1.449071 16.316613 -4.419344
v -1.012800 14.941286 0.746948
v -1.022226 14.941170 -0.734294
v -0.778852 14.944170 -1.820842
v -0.782489 14.944125 -2.392307
v -1.894706 14.930420 -2.850384
v -1.904671 14.930297 -4.416336
v -1.848311 14.930991 4.439924
v -1.858277 14.930868 2.873971
v -0.751980 14.944500 2.401774
v -0.755616 14.944457 1.830310
v -1.305128 14.937684 2.637873
v -0.985889 15.909076 2.635765
v -0.962049 13.974452 2.635765
v -1.338597 14.937271 -2.621345
v -1.019359 15.908663 -2.623453
v -0.995518 13.974040 -2.623453
v -0.889742 15.781437 0.005448
v -1.172465 14.939317 0.007313
v -0.869076 14.104422 0.005448
vt 0.682609 0.000350
vt 0.580789 0.000350
vt 0.403625 0.000350
vt 0.803407 0.000350
vt 0.100819 0.000350
vt 0.302456 0.000350
vt 0.505445 0.000350
vt 0.050297 0.000356
vt 0.352978 0.000356
vt 0.151340 0.000356
vt 0.251934 0.000356
vt 0.000350 0.000362
vt 0.402925 0.000362
vt 0.201287 0.000362
vt 0.201987 0.000362
vt 0.840943 0.009742
vt 0.719556 0.010995
vt 0.542392 0.010995
vt 0.878218 0.016495
vt 0.915319 0.019679
vt 0.951875 0.020098
vt 0.756502 0.021640
vt 0.579338 0.021640
vt 0.794171 0.037262
vt 0.832548 0.047964
vt 0.873211 0.054675
vt 0.952031 0.055920
vt 0.913475 0.057096
vt 0.756502 0.059426
vt 0.579338 0.059426
vt 0.719556 0.076956
vt 0.542392 0.076956
vt 0.682609 0.094486
vt 0.580789 0.094486
vt 0.403624 0.094486
vt 0.505445 0.094486
vt 0.766141 0.104370
vt 0.719931 0.111202
vt 0.542767 0.111203
vt 0.757953 0.114815
vt 0.813829 0.123895
vt 0.962670 0.126816
vt 0.757253 0.127919
vt 0.580089 0.127919
vt 0.865628 0.129076
vt 0.914378 0.130316
vt 0.783710 0.138577
vt 0.757253 0.166004
vt 0.580089 0.166004
vt 0.787514 0.174172
vt 0.810955 0.174217
vt 0.863970 0.174395
vt 0.914161 0.174553
vt 0.967894 0.174657
vt 0.719931 0.177686
vt 0.542767 0.177686
vt 0.580789 0.189367
vt 0.682609 0.189367
vt 0.403625 0.189367
vt 0.505445 0.189367
vt 0.719931 0.201049
vt 0.542767 0.201049
vt 0.783605 0.209671
vt 0.757253 0.212730
vt 0.580089 0.212731
vt 0.914107 0.218861
vt 0.865232 0.219734
vt 0.962613 0.222541
vt 0.813491 0.224470
vt 0.757953 0.233074
vt 0.766009 0.243469
vt 0.757253 0.250816
vt 0.580089 0.250816
vt 0.719931 0.267532
vt 0.542767 0.267532
vt 0.580789 0.284249
vt 0.682609 0.284249
vt 0.403625 0.284249
vt 0.505445 0.284249
vt 0.912501 0.292527
vt 0.951799 0.293934
vt 0.871731 0.294372
vt 0.831155 0.300553
vt 0.719556 0.301779
vt 0.542392 0.301779
vt 0.793058 0.310231
vt 0.756503 0.319309
vt 0.579338 0.319309
vt 0.912891 0.331240
vt 0.951322 0.331726
vt 0.875101 0.332857
vt 0.838056 0.337932
vt 0.801331 0.346345
vt 0.756502 0.357095
vt 0.579338 0.357095
vt 0.719555 0.367740
vt 0.542392 0.367740
vt 0.580789 0.378385
vt 0.682609 0.378385
vt 0.505445 0.378385
vt 0.403625 0.378385
vt 0.757253 0.379085
vt 0.655432 0.379085
vt 0.403625 0.379085
vt 0.505445 0.379085
vt 0.757953 0.379085
vt 0.866920 0.379085
vt 0.902966 0.379085
vt 0.903666 0.379085
vt 0.793998 0.379085
vt 0.830459 0.379085
vt 0.952939 0.387223
vt 0.618486 0.389730
vt 0.542392 0.389730
vt 0.581539 0.400375
vt 0.579338 0.400375
vt 0.903666 0.436496
vt 0.964073 0.436496
vt 0.581539 0.438161
vt 0.579338 0.438161
vt 0.618486 0.455691
vt 0.542392 0.455691
vt 0.757253 0.473221
vt 0.655432 0.473221
vt 0.403625 0.473221
vt 0.505445 0.473221
vt 0.952939 0.485770
vt 0.618110 0.489937
vt 0.542767 0.489937
vt 0.903666 0.493907
vt 0.903666 0.494607
vt 0.952939 0.502745
vt 0.580789 0.506653
vt 0.580089 0.506654
vt 0.580789 0.544739
vt 0.580089 0.544739
vt 0.903666 0.552019
vt 0.964073 0.552019
vt 0.618110 0.556420
vt 0.542767 0.556421
vt 0.100818 0.563429
vt 0.302456 0.563429
vt 0.252002 0.565099
vt 0.151273 0.565100
vt 0.050364 0.565100
vt 0.352910 0.565100
vt 0.202055 0.565106
vt 0.201219 0.565106
vt 0.000417 0.565106
vt 0.402857 0.565106
vt 0.655432 0.568102
vt 0.757253 0.568102
vt 0.403625 0.568102
vt 0.505445 0.568102
vt 0.618110 0.579784
vt 0.542767 0.579784
vt 0.580789 0.591465
vt 0.580089 0.591466
vt 0.952939 0.601292
vt 0.903666 0.609430
vt 0.100818 0.612381
vt 0.302456 0.612381
vt 0.039076 0.613844
vt 0.162560 0.613844
vt 0.240714 0.613844
vt 0.364198 0.613844
vt 0.003026 0.613848
vt 0.198610 0.613848
vt 0.400248 0.613848
vt 0.204664 0.613848
vt 0.063482 0.614685
vt 0.138155 0.614685
vt 0.265120 0.614685
vt 0.339793 0.614685
vt 0.043728 0.615384
vt 0.210991 0.615385
vt 0.247037 0.615385
vt 0.283498 0.615385
vt 0.319959 0.615385
vt 0.356005 0.615385
vt 0.080453 0.623797
vt 0.117499 0.628872
vt 0.580789 0.629550
vt 0.580089 0.629551
vt 0.193719 0.630004
vt 0.155289 0.630490
vt 0.757953 0.632045
vt 0.830459 0.632045
vt 0.902966 0.632045
vt 0.866920 0.632045
vt 0.793998 0.632046
vt 0.757953 0.632745
vt 0.879151 0.632745
vt 0.618110 0.646267
vt 0.542767 0.646267
vt 0.035455 0.651498
vt 0.968918 0.661092
vt 0.847719 0.661092
vt 0.073553 0.661176
vt 0.403625 0.662984
vt 0.505445 0.662984
vt 0.655432 0.662984
vt 0.757253 0.662984
vt 0.114129 0.667357
vt 0.194197 0.667795
vt 0.154898 0.669203
vt 0.542392 0.680514
vt 0.618486 0.680514
vt 0.579338 0.698043
vt 0.581539 0.698043
vt 0.008406 0.718260
vt 0.000350 0.728655
vt 0.579338 0.735829
vt 0.581539 0.735829
vt 0.055888 0.737259
vt 0.205010 0.739188
vt 0.107629 0.741996
vt 0.156505 0.742868
vt 0.542392 0.746475
vt 0.618486 0.746475
vt 0.879151 0.750858
vt 0.878451 0.750858
vt 0.757953 0.750858
vt 0.999650 0.750858
vt 0.026002 0.752059
vt 0.655432 0.757119
vt 0.757253 0.757119
vt 0.403625 0.757120
vt 0.505445 0.757120
vt 0.580789 0.757819
vt 0.403625 0.757819
vt 0.493391 0.786166
vt 0.670555 0.786166
vt 0.210291 0.787073
vt 0.156558 0.787177
vt 0.106368 0.787335
vt 0.053353 0.787512
vt 0.029912 0.787558
vt 0.026107 0.823152
vt 0.156776 0.831414
vt 0.108025 0.832653
vt 0.205067 0.834913
vt 0.056226 0.837835
vt 0.968918 0.840625
vt 0.847719 0.840625
vt 0.000350 0.846915
vt 0.008538 0.857360
vt 0.210991 0.868345
vt 0.319959 0.868345
vt 0.247037 0.868345
vt 0.283498 0.868345
vt 0.356005 0.868345
vt 0.879151 0.868971
vt 0.757953 0.868971
vt 0.701287 0.875932
vt 0.580789 0.875932
vt 0.403625 0.875932
vt 0.524123 0.875932
vt 0.155872 0.904634
vt 0.194428 0.905809
vt 0.115608 0.907055
vt 0.074946 0.913765
vt 0.036568 0.924468
vt 0.194273 0.941631
vt 0.157716 0.942050
vt 0.120615 0.945234
vt 0.083340 0.951987
vt 0.045804 0.961380
vt 0.493391 0.965699
vt 0.670555 0.965699
vt 0.580789 0.994045
vt 0.403625 0.994045
vn 0.668423 0.193466 -0.718179
vn 0.983289 0.181943 -0.006272
vn 0.758718 -0.651402 -0.004778
vn 0.552322 -0.593643 -0.585260
vn 0.983289 0.181943 -0.006272
vn 0.668423 0.193466 -0.718179
vn 0.661318 0.220885 -0.716846
vn 0.981708 0.190288 -0.006262
vn 0.981708 0.190288 -0.006262
vn 0.661318 0.220885 -0.716846
vn 0.646635 -0.314101 -0.695128
vn 0.966662 -0.255983 -0.006132
vn 0.004268 0.163258 0.986574
vn 0.677510 0.193578 0.709583
vn 0.670388 0.220997 0.708336
vn 0.004192 0.168896 0.985625
vn 0.009300 -0.255349 0.966804
vn 0.004192 0.168896 0.985625
vn 0.670388 0.220997 0.708336
vn 0.655430 -0.313992 0.686891
vn 0.661318 0.220885 -0.716846
vn -0.008353 0.168741 -0.985625
vn -0.003005 -0.255501 -0.966804
vn 0.668423 0.193466 -0.718179
vn -0.008289 0.163103 -0.986574
vn -0.008353 0.168741 -0.985625
vn 0.661318 0.220885 -0.716846
vn 0.552322 -0.593643 -0.585260
vn 0.003571 -0.672210 -0.740351
vn -0.008289 0.163103 -0.986574
vn 0.668423 0.193466 -0.718179
vn 0.552322 -0.593643 -0.585260
vn 0.758718 -0.651402 -0.004778
vn 0.012322 -0.999924 -0.000000
vn 0.003571 -0.672210 -0.740351
vn 0.004268 0.163258 0.986574
vn 0.012994 -0.672095 0.740351
vn 0.559727 -0.593551 0.578276
vn 0.677510 0.193578 0.709583
vn 0.670388 0.220997 0.708336
vn 0.981708 0.190288 -0.006262
vn 0.677510 0.193578 0.709583
vn 0.983289 0.181943 -0.006272
vn 0.981708 0.190288 -0.006262
vn 0.670388 0.220997 0.708336
vn 0.758718 -0.651402 -0.004778
vn 0.983289 0.181943 -0.006272
vn 0.677510 0.193578 0.709583
vn 0.559727 -0.593551 0.578276
vn 0.012322 -0.999924 -0.000000
vn 0.758718 -0.651402 -0.004778
vn 0.559727 -0.593551 0.578276
vn 0.012994 -0.672095 0.740351
vn 0.668597 0.710038 -0.220962
vn 0.690950 0.722888 -0.004454
vn 0.999904 0.012321 -0.006364
vn 0.975711 0.012024 -0.218732
vn 0.993910 0.012249 0.109514
vn 0.978416 0.012057 0.206294
vn 0.671354 0.710072 0.212324
vn 0.684895 0.718900 0.118750
vn 0.992435 0.012230 -0.122157
vn 0.683329 0.718880 -0.127569
vn 0.518118 0.550253 -0.654809
vn 0.785585 0.009681 -0.618678
vn 0.793395 0.009777 0.608629
vn 0.526409 0.550355 0.648076
vn 0.380771 0.004692 -0.924658
vn 0.248460 0.268353 -0.930728
vn 0.595672 0.627997 -0.500795
vn 0.858861 0.010584 -0.512099
vn 0.392508 0.004837 0.919736
vn 0.260285 0.268498 0.927448
vn 0.545969 0.569113 0.614840
vn 0.771587 0.009508 0.636053
vn 0.601996 0.628074 0.493075
vn 0.865309 0.010663 0.501125
vn 0.763429 0.009408 -0.645823
vn 0.538099 0.569016 -0.621828
vn 0.913539 -0.406711 -0.005782
vn 0.757097 -0.560748 -0.335212
vn 0.700835 -0.701823 -0.127571
vn 0.539812 -0.537215 0.648076
vn 0.266823 -0.262003 0.927448
vn 0.617290 -0.613050 0.493075
vn 0.551957 -0.555584 -0.621828
vn 0.610965 -0.613128 -0.500795
vn 0.559827 -0.555487 0.614839
vn 0.254997 -0.262149 -0.930728
vn 0.702404 -0.701803 0.118750
vn 0.531520 -0.537318 -0.654810
vn 0.761303 -0.560695 0.325637
vn -0.013847 0.861845 -0.506983
vn -0.005308 0.764012 0.645180
vn -0.010697 0.393188 -0.919396
vn -0.013660 0.795775 -0.605438
vn -0.011521 0.993484 0.113386
vn -0.010828 0.980379 0.196823
vn -0.013334 0.980348 -0.196824
vn -0.012322 0.999924 -0.000000
vn -0.012964 0.993467 -0.113385
vn -0.005954 0.795870 0.605438
vn 0.001005 0.393332 0.919396
vn -0.007395 0.861924 0.506984
vn -0.013520 0.763910 -0.645181
vn -0.006364 -0.000078 -0.999980
vn 0.005308 -0.764011 -0.645181
vn -0.006364 -0.000078 -0.999980
vn 0.013847 -0.861845 0.506984
vn 0.010697 -0.393187 0.919396
vn 0.013660 -0.795775 0.605438
vn 0.011521 -0.993484 -0.113387
vn 0.005360 -0.766605 -0.642096
vn 0.012964 -0.993466 0.113386
vn 0.013532 -0.766504 0.642097
vn 0.005954 -0.795870 -0.605439
vn -0.001005 -0.393332 -0.919396
vn 0.007395 -0.861924 -0.506983
vn 0.013520 -0.763910 0.645181
vn 0.006364 0.000078 0.999980
vn 0.006364 0.000078 0.999980
vn -0.682074 0.176824 -0.709584
vn -0.544930 -0.607164 -0.578276
vn -0.742436 -0.669901 0.004777
vn -0.987474 0.157657 0.006272
vn -0.987474 0.157657 0.006272
vn -0.986099 0.166039 0.006262
vn -0.675630 0.204410 -0.708336
vn -0.682074 0.176824 -0.709584
vn -0.986099 0.166039 0.006262
vn -0.960060 -0.279726 0.006132
vn -0.647494 -0.330048 -0.686892
vn -0.675630 0.204410 -0.708336
vn 0.004268 0.163258 0.986574
vn 0.004192 0.168896 0.985625
vn -0.666561 0.204522 0.716845
vn -0.672988 0.176936 0.718179
vn -0.638699 -0.329940 0.695128
vn -0.666561 0.204522 0.716845
vn 0.004192 0.168896 0.985625
vn -0.675630 0.204410 -0.708336
vn -0.008353 0.168741 -0.985625
vn -0.682074 0.176824 -0.709584
vn -0.675630 0.204410 -0.708336
vn -0.008353 0.168741 -0.985625
vn -0.008289 0.163103 -0.986574
vn -0.544930 -0.607164 -0.578276
vn -0.682074 0.176824 -0.709584
vn -0.008289 0.163103 -0.986574
vn 0.003571 -0.672210 -0.740351
vn -0.544930 -0.607164 -0.578276
vn 0.003571 -0.672210 -0.740351
vn 0.012322 -0.999924 -0.000000
vn -0.742436 -0.669901 0.004777
vn 0.004268 0.163258 0.986574
vn -0.672988 0.176936 0.718179
vn -0.537526 -0.607072 0.585260
vn 0.012994 -0.672095 0.740351
vn -0.666561 0.204522 0.716845
vn -0.986099 0.166039 0.006262
vn -0.672988 0.176936 0.718179
vn -0.666561 0.204522 0.716845
vn -0.986099 0.166039 0.006262
vn -0.987474 0.157657 0.006272
vn -0.742436 -0.669901 0.004777
vn -0.537526 -0.607072 0.585260
vn -0.672988 0.176936 0.718179
vn -0.987474 0.157657 0.006272
vn 0.012322 -0.999924 -0.000000
vn 0.012994 -0.672095 0.740351
vn -0.537526 -0.607072 0.585260
vn -0.742436 -0.669901 0.004777
vn -0.688648 0.693312 -0.212324
vn -0.978416 -0.012057 -0.206294
vn -0.999904 -0.012323 0.006364
vn -0.708554 0.705643 0.004454
vn -0.992435 -0.012229 0.122157
vn -0.700835 0.701824 0.127570
vn -0.685891 0.693347 0.220962
vn -0.975711 -0.012023 0.218732
vn -0.702403 0.701804 -0.118749
vn -0.993910 -0.012247 -0.109514
vn -0.793395 -0.009777 -0.608628
vn -0.539812 0.537216 -0.648076
vn -0.531520 0.537318 0.654810
vn -0.785585 -0.009680 0.618679
vn -0.392508 -0.004837 -0.919736
vn -0.865309 -0.010663 -0.501125
vn -0.617291 0.613049 -0.493075
vn -0.266823 0.262003 -0.927448
vn -0.254997 0.262148 0.930728
vn -0.380770 -0.004692 0.924658
vn -0.763429 -0.009408 0.645823
vn -0.551957 0.555584 0.621828
vn -0.610966 0.613127 0.500795
vn -0.559828 0.555486 -0.614840
vn -0.771587 -0.009508 -0.636053
vn -0.858861 -0.010583 0.512100
vn -0.747254 -0.579286 -0.325637
vn -0.903239 -0.429099 0.005782
vn -0.684896 -0.718899 -0.118751
vn -0.518118 -0.550252 0.654810
vn -0.248460 -0.268352 0.930728
vn -0.545969 -0.569113 -0.614840
vn -0.595671 -0.627997 0.500795
vn -0.601996 -0.628075 -0.493074
vn -0.538099 -0.569017 0.621827
vn -0.260285 -0.268498 -0.927448
vn -0.683329 -0.718879 0.127570
vn -0.526409 -0.550354 -0.648077
vn -0.743049 -0.579233 0.335212
vn -0.006364 -0.000078 -0.999980
vn -0.006364 -0.000078 -0.999980
vn 0.006364 0.000078 0.999980
vn 0.006364 0.000078 0.999980
s off
g Handel1
usemtl blinn3SG
f 1/144/1 19/141/2 20/5/3 3/10/4
f 19/141/5 1/144/6 6/172/7 18/161/8
s 1
usemtl lambert2SG
f 18/188/9 6/191/10 8/110/11 17/111/12
s off
usemtl blinn3SG
f 9/149/13 2/145/14 5/163/15 10/167/16
s 1
usemtl lambert2SG
f 11/108/17 10/189/18 5/190/19 7/107/20
f 6/191/21 13/187/22 12/106/23 8/110/11
s off
usemtl blinn3SG
f 1/144/24 14/148/25 13/168/26 6/164/27
f 3/10/28 15/14/29 14/148/30 1/144/31
f 3/112/32 20/118/33 21/117/34 15/109/35
f 9/149/36 16/12/37 4/8/38 2/145/39
s 1
usemtl lambert2SG
f 5/190/40 18/188/41 17/111/12 7/107/20
s off
usemtl blinn3SG
f 2/145/42 19/141/43 18/161/44 5/171/45
f 20/5/46 19/141/47 2/145/48 4/8/49
f 21/117/50 20/118/51 4/127/52 16/130/53
s 1
usemtl blinn2SG
f 22/218/54 85/235/55 86/236/56 43/217/57
f 51/261/58 42/241/59 23/240/60 27/259/61
f 22/218/54 43/217/57 44/204/62 29/206/63
f 51/261/58 27/259/61 31/265/64 50/266/65
f 29/206/63 44/204/62 45/182/66 33/186/67
f 52/139/68 53/128/69 35/124/70 49/151/71
f 33/44/67 45/49/66 55/56/72 56/39/73
f 49/151/71 35/124/70 39/123/74 48/152/75
f 37/36/76 46/60/77 47/59/78 41/35/79
f 43/217/57 86/236/56 87/237/80 24/215/81
f 44/204/62 43/217/57 24/215/81 28/199/82
f 45/182/66 44/204/62 28/199/82 32/181/83
f 57/75/84 55/62/72 45/65/66 32/73/83
f 47/59/78 46/60/77 36/79/85 40/78/86
f 34/202/87 49/151/71 48/152/75 38/203/88
f 54/194/89 52/155/68 49/151/71 34/202/87
f 26/262/90 51/261/58 50/266/65 30/267/91
f 25/243/92 42/241/59 51/261/58 26/262/90
f 50/135/65 31/133/64 53/128/69 52/139/68
f 30/183/91 50/157/65 52/155/68 54/194/89
f 56/39/73 55/56/72 46/60/77 37/36/76
f 46/60/77 55/62/72 57/75/84 36/79/85
f 35/124/70 59/103/93 58/102/94 39/123/74
f 53/121/69 60/113/95 59/103/93 35/124/70
f 31/119/64 61/115/96 60/113/95 53/121/69
f 27/259/61 62/260/97 61/264/96 31/265/64
f 23/240/60 63/242/98 62/260/97 27/259/61
f 64/216/99 84/234/100 85/235/55 22/218/54
f 65/205/101 64/216/99 22/218/54 29/206/63
f 66/185/102 65/205/101 29/206/63 33/186/67
f 67/18/103 66/23/102 33/30/67 56/32/73
f 68/7/104 67/18/103 56/32/73 37/36/76
f 69/3/105 68/7/104 37/36/76 41/35/79
f 47/222/78 70/223/106 69/192/105 41/198/79
f 40/245/86 71/254/107 70/223/108 47/222/78
f 36/79/85 72/100/109 71/101/107 40/78/86
f 57/85/84 73/97/110 72/100/109 36/79/85
f 32/88/83 74/95/111 73/97/110 57/85/84
f 28/199/82 75/196/112 74/175/111 32/181/83
f 24/215/81 76/211/113 75/196/112 28/199/82
f 78/263/114 77/247/115 25/243/92 26/262/90
f 79/268/116 78/263/114 26/262/90 30/267/91
f 80/220/117 79/214/116 30/210/91 54/208/89
f 81/226/118 80/220/117 54/208/89 34/202/87
f 82/227/119 81/226/118 34/202/87 38/203/88
f 83/221/120 82/193/119 38/197/88 48/224/75
f 58/253/94 83/221/121 48/224/75 39/244/74
f 85/235/55 84/234/100 63/242/98 23/240/60
f 86/236/56 85/235/55 23/240/60 42/241/59
f 87/237/80 86/236/56 42/241/59 25/243/92
f 7/239/20 25/243/92 77/247/115 11/246/17
f 87/237/80 25/243/92 7/239/20 17/238/12
f 24/215/81 87/237/80 17/238/12 8/225/11
f 76/211/113 24/215/81 8/225/11 12/212/23
s off
usemtl blinn3SG
f 88/143/122 90/11/123 99/6/124 98/142/125
f 98/142/126 97/162/127 93/173/128 88/143/129
s 1
usemtl lambert2SG
f 97/178/130 96/251/131 95/250/132 93/177/133
s off
usemtl blinn3SG
f 9/150/134 10/169/135 92/166/136 89/146/137
s 1
usemtl lambert2SG
f 11/252/17 94/249/138 92/179/139 10/180/140
f 93/177/141 95/250/132 12/248/23 13/176/142
s off
usemtl blinn3SG
f 88/143/143 93/165/144 13/170/145 14/147/146
f 90/11/147 88/143/148 14/147/149 15/15/150
f 90/159/151 15/160/152 21/137/153 99/138/154
f 9/150/155 89/146/156 91/9/157 16/13/158
s 1
usemtl lambert2SG
f 92/179/159 94/249/138 96/251/131 97/178/160
s off
usemtl blinn3SG
f 89/146/161 92/174/162 97/162/163 98/142/164
f 99/6/165 91/9/166 89/146/167 98/142/168
f 21/137/169 16/131/170 91/132/171 99/138/172
s 1
usemtl blinn2SG
f 100/66/173 121/67/174 137/52/175 136/53/176
f 129/26/177 105/28/178 101/46/179 120/45/180
f 100/66/173 107/80/181 122/82/182 121/67/174
f 129/26/177 128/19/183 109/20/184 105/28/178
f 107/80/181 111/89/185 123/91/186 122/82/182
f 130/55/187 127/58/188 113/33/189 131/38/190
f 111/184/185 134/195/191 133/156/192 123/158/186
f 127/58/188 126/57/193 117/34/194 113/33/189
f 115/201/195 119/200/196 125/153/197 124/154/198
f 121/67/174 102/69/199 138/51/200 137/52/175
f 122/82/182 106/83/201 102/69/199 121/67/174
f 123/91/186 110/92/202 106/83/201 122/82/182
f 135/129/203 110/134/202 123/136/186 133/140/192
f 125/153/197 118/125/204 114/126/205 124/154/198
f 112/77/206 116/76/207 126/57/193 127/58/188
f 132/74/208 112/77/206 127/58/188 130/61/187
f 104/25/209 108/16/210 128/19/183 129/26/177
f 103/41/211 104/25/209 129/26/177 120/45/180
f 128/48/183 130/55/187 131/38/190 109/43/184
f 108/72/210 132/74/208 130/61/187 128/64/183
f 134/195/191 115/201/195 124/154/198 133/156/192
f 124/154/198 114/126/205 135/129/203 133/140/192
f 113/33/189 117/34/194 58/2/94 59/1/93
f 131/31/190 113/33/189 59/1/93 60/17/95
f 109/29/184 131/31/190 60/17/95 61/22/96
f 105/28/178 109/20/184 61/21/96 62/27/97
f 101/46/179 105/28/178 62/27/97 63/42/98
f 64/68/99 100/66/173 136/53/176 84/54/100
f 65/81/101 107/80/181 100/66/173 64/68/99
f 66/90/102 111/89/185 107/80/181 65/81/101
f 67/219/103 134/207/191 111/209/185 66/213/102
f 68/229/104 115/201/195 134/207/191 67/219/103
f 69/228/105 119/200/196 115/201/195 68/229/104
f 125/258/197 119/269/196 69/272/105 70/257/212
f 118/232/204 125/258/197 70/257/213 71/231/107
f 114/126/205 118/125/204 71/104/107 72/105/109
f 135/122/203 114/126/205 72/105/109 73/114/110
f 110/120/202 135/122/203 73/114/110 74/116/111
f 106/83/201 110/92/202 74/93/111 75/86/112
f 102/69/199 106/83/201 75/86/112 76/71/113
f 78/24/114 104/25/209 103/41/211 77/37/115
f 79/4/116 108/16/210 104/25/209 78/24/114
f 80/96/117 132/84/208 108/87/210 79/94/116
f 81/99/118 112/77/206 132/84/208 80/96/117
f 82/98/119 116/76/207 112/77/206 81/99/118
f 83/256/214 126/255/193 116/270/207 82/271/119
f 58/230/94 117/233/194 126/255/193 83/256/215
f 136/53/176 101/46/179 63/42/98 84/54/100
f 137/52/175 120/45/180 101/46/179 136/53/176
f 138/51/200 103/41/211 120/45/180 137/52/175
f 94/47/138 11/40/17 77/37/115 103/41/211
f 138/51/200 96/50/131 94/47/138 103/41/211
f 102/69/199 95/63/132 96/50/131 138/51/200
f 76/71/113 12/70/23 95/63/132 102/69/199
